<svg xmlns="http://www.w3.org/2000/svg" viewBox="-0.250 1.810 16.223 13.440"><path fill="black" fill-rule="nonzero" d=" M 15.151 7.472 L 12.239 7.472 C 11.789 7.472 11.675 7.784 11.918 8.133  L 13.338 10.160 C 13.539 10.449 13.845 10.456 14.053 10.160  L 15.471 8.140 C 15.723 7.784 15.602 7.472 15.151 7.472  Z M 7.857 3.135 C 10.841 3.135 13.254 5.548 13.254 8.530  C 13.254 8.819 13.502 9.067 13.798 9.067  C 14.087 9.067 14.329 8.826 14.335 8.537  C 14.329 4.948 11.433 2.060 7.857 2.060  C 5.955 2.060 4.228 2.882 3.046 4.203  C 2.781 4.498 2.875 4.863 3.109 5.040  C 3.317 5.186 3.595 5.202 3.854 4.914  C 4.847 3.819 6.276 3.135 7.857 3.135  Z M 0.571 9.588 L 3.477 9.588 C 3.926 9.588 4.048 9.276 3.804 8.927  L 2.385 6.900 C 2.184 6.611 1.878 6.604 1.670 6.900  L 0.250 8.920 C 0.000 9.276 0.114 9.588 0.571 9.588  Z M 7.857 13.925 C 4.875 13.925 2.467 11.512 2.467 8.530  C 2.467 8.241 2.221 7.993 1.925 7.993  C 1.634 7.993 1.394 8.234 1.387 8.523  C 1.394 12.112 4.290 15.000 7.857 15.000  C 9.766 15.000 11.488 14.178 12.675 12.857  C 12.935 12.562 12.846 12.197 12.606 12.020  C 12.406 11.874 12.128 11.858 11.868 12.146  C 10.876 13.241 9.440 13.925 7.857 13.925  Z"/></svg>
